<?xml version="1.0" encoding="utf-8"?>
<!-- Generator: Adobe Illustrator 18.1.1, SVG Export Plug-In . SVG Version: 6.00 Build 0)  -->
<!DOCTYPE svg PUBLIC "-//W3C//DTD SVG 1.0//EN" "http://www.w3.org/TR/2001/REC-SVG-20010904/DTD/svg10.dtd">
<svg version="1.0" id="bass-spotted_xA0_Image_1_" xmlns="http://www.w3.org/2000/svg" xmlns:xlink="http://www.w3.org/1999/xlink"
	 x="0px" y="0px" viewBox="0 0 235.3 96.2" style="enable-background:new 0 0 235.3 96.2;" xml:space="preserve">
<g>
	<path d="M0,53.7c0-0.7,0-1.4,0-2.2c3.3-3.6,5.9-8.4,9.9-10.7C20.3,35,31.3,29.9,42.2,25c10.1-4.5,21-6.5,31.9-7.6
		c3.8-0.4,6.6-1,6.6-5.6c0-0.7,0.8-1.9,1.3-1.9c3.3-0.1,2.9-3.2,4.3-5.5c0.5,1.5,0.9,2.4,1.4,3.9c1.7-2.3,2.9-4,4.2-5.8
		c0.2,0.1,0.4,0.2,0.5,0.4C92.4,3.9,92.3,5,92.2,6c0.3,0.2,0.6,0.4,0.9,0.6c1.1-1.3,2.3-2.6,3.5-4c1.3,2.7,1.7,2.7,4.9,0.6
		c0.4,1.5,0.8,2.9,1.5,5.6c1-2,1.7-3.4,2.7-5.4c1.3,2.6,1.9,3.9,2.4,4.9c0.8-0.7,1.6-1.4,2-1.7c1.1,1.5,1.7,2.9,2.8,3.7
		c0.3,0.3,1.8-1.1,2.8-1.7c0.8,1.3,1.6,2.6,2.5,4c1.1-0.9,1.9-1.6,2.9-2.4c0.7,1.2,1.2,2.1,1.9,3.2c0.5-0.4,0.9-0.7,1.3-0.9
		c1.2-0.9,1.5-3.8,4-1.5c0.1,0.1,0.8-0.4,1.1-0.7c1.3-1.3,2.7-2.6,3.9-3.9c8.3-9.1,17.2-7.8,25.7-1.5c4.9,3.7,6.5,9.4,8,15
		c1.3,5.1,0.1,6.5-5.3,8c-1.5,0.4-3.1,0.6-4.7,0.9c10,1.5,19.9,2.4,29.9,3.2c0.8,0.1,1.7,0,2.4-0.4c6.3-3.1,12.5-6.2,18.7-9.3
		c6.4-3.1,12.8-6.4,19.4-9.2c1.3-0.6,4.2,0,4.9,1.1c1.5,2.3,2.9,5.2,2.9,7.8c0.3,13.9,0.1,27.8,0.1,41.7c0,0.9-0.3,2-0.8,2.8
		c-3.5,5.4-6.2,6.4-12.2,3.5c-6.7-3.2-13.4-6.6-19.9-10.3c-5.8-3.3-11.7-5.6-18.6-4.8c-3.3,0.4-6.6,0.3-9.9,0.8
		c-3.8,0.5-7.5,1.5-11.3,2.2c6.3,0,8.9,2.6,8.6,9.2c-0.3,5.2-1.2,10.3-4.3,14.8c-4.3,6.1-9.7,7.6-16,3.9c-4.4-2.5-8.3-5.9-12.1-9.2
		c-2-1.7-3.4-4.1-5.4-6.6c-0.2,1.5-0.3,2.4-0.4,3.5c-2.4-3.1-5.1-5.1-9-4.2c-12.7,3.1-25.5,3.6-38.4,2.3c-0.4,0-0.8,0.6-1.4,1.1
		c0.9,0.4,1.4,0.7,1.9,0.9c6.4,2.6,8.9,5.9,7.4,10.8c-1,3.4-2.9,6.6-4.4,9.9c-0.9,1.9-2.1,2.2-3.4,0.5c-3.2-4.1-8.8-5.8-9.8-12.1
		c-0.5-3.3-3.5-6.3-5.6-9.4c-0.6-0.8-1.7-1.6-2.7-1.8c-3.3-0.6-6.7-1-10.1-1.5c-6.5-1-13.1-1.6-19.5-3c-4.2-0.9-8.2-2.9-12.3-4.2
		c-6.1-1.9-12.4-3.5-18.4-5.5C4.7,56.7,2.4,55,0,53.7z"/>
</g>
</svg>
