<?xml version="1.0" encoding="utf-8"?>
<!-- Generator: Adobe Illustrator 18.1.1, SVG Export Plug-In . SVG Version: 6.00 Build 0)  -->
<!DOCTYPE svg PUBLIC "-//W3C//DTD SVG 1.0//EN" "http://www.w3.org/TR/2001/REC-SVG-20010904/DTD/svg10.dtd">
<svg version="1.0" id="bass-shoal_xA0_Image_1_" xmlns="http://www.w3.org/2000/svg" xmlns:xlink="http://www.w3.org/1999/xlink"
	 x="0px" y="0px" viewBox="0 0 199.4 76.4" style="enable-background:new 0 0 199.4 76.4;" xml:space="preserve">
<g>
	<path d="M70.3,5.1c0.8,0.5,1.4,0.9,2.1,1.5c1.1-1.7,2.1-3.3,3.4-5.3c1,4.4,2.8,3.7,5.1,0.6c-0.3,1.6-0.5,2.6-0.9,4.7
		c4-3.2,7.6-4.1,10.7,0.1c0.8-0.6,1.6-1,2.4-1.6c0.3,1.2,0.5,2.4,0.8,3.9c1.6-0.9,2.6-1.6,3.8-2.3c0.2,1.1,0.4,2.2,0.6,3.8
		c2.3-1.4,3.3-3.3,6.3-2.2c1.6,0.6,4.6-2,6.6-3.7c5.8-5,13-6.1,19.6-2.4c6,3.4,9.5,9,10.2,15.9c0.4,3.7-2,5.3-7.6,6.2
		c2.5,0.5,5.1,1,7.6,1.5c11.5,2.1,22-0.9,32.3-5.7c6.1-2.9,12.6-5,19-7.1c4.2-1.3,7.1,1.2,7.2,5.9c0.1,5.3-0.1,10.7-4.2,15
		c-3,3.2-0.4,6.1,0.9,9c1.8,4,3.6,7.9,2,12.4c-1.5,4.3-4.2,6.1-8.5,4.6c-6.9-2.3-13.5-5.2-20.4-7.5c-7.2-2.4-14.1-6.2-22.1-5.1
		c-2.7,0.4-5.4,0.6-8.9,1c1.6,0.6,2.6,0.8,3.4,1.3c2.2,1.2,3.8,3,3.1,5.7c-1.8,7-5.5,12.6-12.3,15.7c-3.2,1.5-6.1,0.2-8.4-1.8
		c-2.4-2.1-4.3-4.8-7.2-8.1c-0.1,0.4-0.3,1.1-0.5,1.7c-2.1-1.5-4-3-6.2-4.3c-1.1-0.6-2.4-1.1-3.6-1.1c-10,0.4-19.9,1-29.9,1.3
		c-2.7,0.1-5.3-0.7-8-1c-0.6-0.1-1.2,0.1-2.3,0.1c3,2.1,5.6,3.9,8.2,5.7c-2.1,1.4-3.8,2.6-5.5,3.9c-0.1,0.1,0.4,0.8,0.6,1.2
		c1.3-0.8,2.7-1.6,4.5-2.7c0,2.1,0,3.3,0,4.5c-0.2,0-0.4,0-0.6,0c0-0.9,0-1.9,0-2.8c-0.4,0-0.7-0.1-1.1-0.1
		c-0.2,1.6-0.4,3.3-0.6,5.2c-0.8,0.1-0.8,0.1-5.3-5.2c0.4,1.7,0.8,3.4,1.1,5.1c-0.3,0.2-0.5,0.5-0.8,0.7c-1.2-1.4-2.4-2.8-3.6-4.2
		c-0.2,0.1-0.4,0.2-0.7,0.3c0.9,2,1.9,4.1,2.8,6.1c-0.2,0.2-0.3,0.4-0.5,0.6c-0.9-0.9-2.3-1.7-2.7-2.8c-1.1-3.3-3.2-6-3.7-9.9
		c-0.4-3-3.6-6.6-8.7-7.2c-13.6-1.5-27.1-4.1-39.7-9.9c-3-1.4-5.9-2.8-8.8-4.4c-2.1-1.2-1.9-3.4-0.7-4.8c3.5-4.3,7.7-7.7,13.1-9.8
		c7.3-2.9,14.1-6.8,21.4-9.5c5.9-2.1,12.2-3.2,18.3-4.4c3-0.6,6.1-0.5,9.2-0.8c1-0.1,2.6-0.7,2.7-1.2C65.8,8.5,69.1,7.7,70.3,5.1z"
		/>
</g>
</svg>
